<svg width="643" height="448" viewBox="0 0 643 448" fill="none" xmlns="http://www.w3.org/2000/svg">
<g clip-path="url(#clip0_1414_175)">
<path d="M613.072 87.0635H29.9281C21.9934 87.0545 14.3863 83.8985 8.77563 78.2878C3.16498 72.6772 0.00896191 65.0701 0 57.1354V29.9281C0.00896191 21.9934 3.16498 14.3863 8.77563 8.77564C14.3863 3.16498 21.9934 0.00896838 29.9281 3.8147e-06H613.072C621.007 0.00896573 628.614 3.16496 634.224 8.77562C639.835 14.3863 642.991 21.9934 643 29.9281V57.1354C642.991 65.0701 639.835 72.6772 634.224 78.2878C628.614 83.8985 621.007 87.0545 613.072 87.0635ZM29.9281 1.81382C22.4743 1.82227 15.3282 4.78702 10.0576 10.0576C4.787 15.3283 1.82226 22.4743 1.81381 29.9281V57.1354C1.82226 64.5892 4.787 71.7352 10.0576 77.0058C15.3282 82.2764 22.4743 85.2412 29.9281 85.2496H613.072C620.526 85.2412 627.672 82.2764 632.942 77.0058C638.213 71.7352 641.178 64.5892 641.186 57.1354V29.9281C641.178 22.4743 638.213 15.3283 632.942 10.0576C627.672 4.78702 620.526 1.82227 613.072 1.81382H29.9281Z" fill="#3F3D56"/>
<path d="M461.617 26.3004H74.3661C64.8495 26.3004 57.1348 34.0151 57.1348 43.5317V43.5318C57.1348 53.0483 64.8495 60.763 74.3661 60.763H461.617C471.134 60.763 478.848 53.0483 478.848 43.5317C478.848 34.0151 471.134 26.3004 461.617 26.3004Z" fill="#E6E6E6"/>
<path d="M512.404 177.43H125.153C115.637 177.43 107.922 185.145 107.922 194.661V194.662C107.922 204.178 115.637 211.893 125.153 211.893H512.404C521.921 211.893 529.636 204.178 529.636 194.661C529.636 185.145 521.921 177.43 512.404 177.43Z" fill="black"/>
<path d="M512.404 287.004H125.153C115.637 287.004 107.922 294.719 107.922 304.236V304.236C107.922 313.752 115.637 321.467 125.153 321.467H512.404C521.921 321.467 529.636 313.752 529.636 304.236C529.636 294.719 521.921 287.004 512.404 287.004Z" fill="#E6E6E6"/>
<path d="M512.404 396.578H125.153C115.637 396.578 107.922 404.293 107.922 413.81V413.81C107.922 423.326 115.637 431.041 125.153 431.041H512.404C521.921 431.041 529.636 423.326 529.636 413.81C529.636 404.293 521.921 396.578 512.404 396.578Z" fill="#E6E6E6"/>
<path d="M586.312 62.1474C585.899 62.737 585.269 63.1384 584.56 63.2634C583.851 63.3884 583.122 63.2267 582.532 62.8139L567.726 52.5112C567.136 52.0983 566.735 51.4681 566.61 50.7592C566.485 50.0504 566.646 49.3209 567.059 48.7312C567.472 48.1416 568.102 47.7401 568.811 47.6151C569.52 47.4901 570.249 47.6519 570.839 48.0647L585.646 58.3674C586.235 58.7803 586.637 59.4105 586.762 60.1194C586.887 60.8282 586.725 61.5577 586.312 62.1474Z" fill="black"/>
<path d="M569.502 50.442C567.317 53.5634 564.255 55.9667 560.703 57.3478C557.152 58.729 553.27 59.026 549.55 58.2013C545.83 57.3765 542.438 55.4672 539.802 52.7145C537.167 49.9619 535.408 46.4897 534.746 42.737C534.084 38.9843 534.55 35.1197 536.085 31.6318C537.619 28.1439 540.154 25.1894 543.368 23.1419C546.581 21.0945 550.33 20.046 554.14 20.129C557.95 20.2121 561.649 21.4231 564.771 23.6087C568.952 26.5433 571.798 31.0164 572.685 36.0469C573.572 41.0774 572.427 46.2543 569.502 50.442ZM541.883 31.1031C540.244 33.4442 539.336 36.2189 539.273 39.0761C539.211 41.9334 539.997 44.7449 541.533 47.1553C543.069 49.5656 545.284 51.4665 547.9 52.6175C550.516 53.7685 553.415 54.1179 556.229 53.6216C559.044 53.1253 561.648 51.8055 563.712 49.8292C565.777 47.8529 567.209 45.3088 567.827 42.5186C568.446 39.7284 568.223 36.8174 567.187 34.1538C566.151 31.4902 564.349 29.1936 562.008 27.5543C558.867 25.3605 554.985 24.502 551.212 25.1673C547.439 25.8326 544.084 27.9674 541.883 31.1031Z" fill="black"/>
<path d="M596.294 228.332H46.7057C46.4652 228.332 46.2345 228.237 46.0645 228.067C45.8944 227.897 45.7988 227.666 45.7988 227.425C45.7988 227.185 45.8944 226.954 46.0645 226.784C46.2345 226.614 46.4652 226.518 46.7057 226.518H596.294C596.534 226.518 596.765 226.614 596.935 226.784C597.105 226.954 597.201 227.185 597.201 227.425C597.201 227.666 597.105 227.897 596.935 228.067C596.765 228.237 596.534 228.332 596.294 228.332Z" fill="#3F3D56"/>
<path d="M596.294 337.952H46.7057C46.4652 337.952 46.2345 337.856 46.0645 337.686C45.8944 337.516 45.7988 337.285 45.7988 337.045C45.7988 336.804 45.8944 336.573 46.0645 336.403C46.2345 336.233 46.4652 336.138 46.7057 336.138H596.294C596.534 336.138 596.765 336.233 596.935 336.403C597.105 336.573 597.201 336.804 597.201 337.045C597.201 337.285 597.105 337.516 596.935 337.686C596.765 337.856 596.534 337.952 596.294 337.952Z" fill="#3F3D56"/>
<path d="M596.294 447.57H46.7057C46.4652 447.57 46.2345 447.475 46.0645 447.305C45.8944 447.135 45.7988 446.904 45.7988 446.663C45.7988 446.423 45.8944 446.192 46.0645 446.022C46.2345 445.852 46.4652 445.756 46.7057 445.756H596.294C596.534 445.756 596.765 445.852 596.935 446.022C597.105 446.192 597.201 446.423 597.201 446.663C597.201 446.904 597.105 447.135 596.935 447.305C596.765 447.475 596.534 447.57 596.294 447.57Z" fill="#3F3D56"/>
<path d="M170.483 50L169.728 46.5635C169.687 46.3584 169.619 46.0566 169.525 45.6582C169.432 45.2539 169.329 44.8232 169.218 44.3662C169.112 43.9033 169.013 43.4756 168.919 43.083C168.831 42.6904 168.767 42.4033 168.726 42.2217H168.646C168.605 42.4033 168.541 42.6904 168.453 43.083C168.365 43.4756 168.266 43.9033 168.154 44.3662C168.049 44.8291 167.949 45.2656 167.855 45.6758C167.762 46.0801 167.691 46.3877 167.645 46.5986L166.854 50H163.971L161.176 40.1738H163.848L164.981 44.5244C165.058 44.8291 165.131 45.1924 165.201 45.6143C165.271 46.0303 165.333 46.4346 165.386 46.8271C165.444 47.2139 165.488 47.5215 165.518 47.75H165.588C165.6 47.5801 165.623 47.3545 165.658 47.0732C165.699 46.792 165.743 46.502 165.79 46.2031C165.843 45.8984 165.89 45.626 165.931 45.3857C165.978 45.1396 166.013 44.9727 166.036 44.8848L167.249 40.1738H170.202L171.354 44.8848C171.395 45.0547 171.447 45.3242 171.512 45.6934C171.582 46.0625 171.644 46.4434 171.696 46.8359C171.749 47.2227 171.778 47.5273 171.784 47.75H171.854C171.878 47.5508 171.919 47.2549 171.978 46.8623C172.036 46.4697 172.104 46.0596 172.18 45.6318C172.262 45.1982 172.344 44.8291 172.426 44.5244L173.604 40.1738H176.231L173.401 50H170.483ZM185.899 50L185.144 46.5635C185.103 46.3584 185.035 46.0566 184.941 45.6582C184.848 45.2539 184.745 44.8232 184.634 44.3662C184.528 43.9033 184.429 43.4756 184.335 43.083C184.247 42.6904 184.183 42.4033 184.142 42.2217H184.062C184.021 42.4033 183.957 42.6904 183.869 43.083C183.781 43.4756 183.682 43.9033 183.57 44.3662C183.465 44.8291 183.365 45.2656 183.271 45.6758C183.178 46.0801 183.107 46.3877 183.061 46.5986L182.27 50H179.387L176.592 40.1738H179.264L180.397 44.5244C180.474 44.8291 180.547 45.1924 180.617 45.6143C180.688 46.0303 180.749 46.4346 180.802 46.8271C180.86 47.2139 180.904 47.5215 180.934 47.75H181.004C181.016 47.5801 181.039 47.3545 181.074 47.0732C181.115 46.792 181.159 46.502 181.206 46.2031C181.259 45.8984 181.306 45.626 181.347 45.3857C181.394 45.1396 181.429 44.9727 181.452 44.8848L182.665 40.1738H185.618L186.77 44.8848C186.811 45.0547 186.863 45.3242 186.928 45.6934C186.998 46.0625 187.06 46.4434 187.112 46.8359C187.165 47.2227 187.194 47.5273 187.2 47.75H187.271C187.294 47.5508 187.335 47.2549 187.394 46.8623C187.452 46.4697 187.52 46.0596 187.596 45.6318C187.678 45.1982 187.76 44.8291 187.842 44.5244L189.02 40.1738H191.647L188.817 50H185.899ZM201.315 50L200.56 46.5635C200.519 46.3584 200.451 46.0566 200.357 45.6582C200.264 45.2539 200.161 44.8232 200.05 44.3662C199.944 43.9033 199.845 43.4756 199.751 43.083C199.663 42.6904 199.599 42.4033 199.558 42.2217H199.479C199.438 42.4033 199.373 42.6904 199.285 43.083C199.197 43.4756 199.098 43.9033 198.986 44.3662C198.881 44.8291 198.781 45.2656 198.688 45.6758C198.594 46.0801 198.523 46.3877 198.477 46.5986L197.686 50H194.803L192.008 40.1738H194.68L195.813 44.5244C195.89 44.8291 195.963 45.1924 196.033 45.6143C196.104 46.0303 196.165 46.4346 196.218 46.8271C196.276 47.2139 196.32 47.5215 196.35 47.75H196.42C196.432 47.5801 196.455 47.3545 196.49 47.0732C196.531 46.792 196.575 46.502 196.622 46.2031C196.675 45.8984 196.722 45.626 196.763 45.3857C196.81 45.1396 196.845 44.9727 196.868 44.8848L198.081 40.1738H201.034L202.186 44.8848C202.227 45.0547 202.279 45.3242 202.344 45.6934C202.414 46.0625 202.476 46.4434 202.528 46.8359C202.581 47.2227 202.61 47.5273 202.616 47.75H202.687C202.71 47.5508 202.751 47.2549 202.81 46.8623C202.868 46.4697 202.936 46.0596 203.012 45.6318C203.094 45.1982 203.176 44.8291 203.258 44.5244L204.436 40.1738H207.063L204.233 50H201.315ZM208.276 48.7432C208.276 48.1924 208.426 47.8057 208.725 47.583C209.029 47.3604 209.396 47.249 209.823 47.249C210.239 47.249 210.597 47.3604 210.896 47.583C211.2 47.8057 211.353 48.1924 211.353 48.7432C211.353 49.2705 211.2 49.6514 210.896 49.8857C210.597 50.1201 210.239 50.2373 209.823 50.2373C209.396 50.2373 209.029 50.1201 208.725 49.8857C208.426 49.6514 208.276 49.2705 208.276 48.7432ZM216.898 50.1758C215.803 50.1758 214.909 49.748 214.218 48.8926C213.532 48.0312 213.189 46.7686 213.189 45.1045C213.189 43.4229 213.538 42.1514 214.235 41.29C214.933 40.4229 215.844 39.9893 216.969 39.9893C217.438 39.9893 217.851 40.0537 218.208 40.1826C218.565 40.3115 218.873 40.4844 219.131 40.7012C219.395 40.918 219.617 41.1611 219.799 41.4307H219.887C219.852 41.2432 219.808 40.9678 219.755 40.6045C219.708 40.2354 219.685 39.8574 219.685 39.4707V36.3242H222.374V50H220.317L219.799 48.7256H219.685C219.515 48.9951 219.301 49.2412 219.043 49.4639C218.791 49.6807 218.489 49.8535 218.138 49.9824C217.786 50.1113 217.373 50.1758 216.898 50.1758ZM217.839 48.04C218.571 48.04 219.087 47.8232 219.386 47.3896C219.69 46.9502 219.852 46.291 219.869 45.4121V45.1221C219.869 44.167 219.723 43.4375 219.43 42.9336C219.137 42.4238 218.592 42.1689 217.795 42.1689C217.203 42.1689 216.74 42.4238 216.406 42.9336C216.072 43.4434 215.905 44.1787 215.905 45.1396C215.905 46.1006 216.072 46.8242 216.406 47.3105C216.746 47.7969 217.224 48.04 217.839 48.04ZM234.107 45.0693C234.107 45.8896 233.996 46.6162 233.773 47.249C233.557 47.8818 233.237 48.418 232.815 48.8574C232.399 49.291 231.896 49.6191 231.304 49.8418C230.718 50.0645 230.056 50.1758 229.317 50.1758C228.626 50.1758 227.99 50.0645 227.41 49.8418C226.836 49.6191 226.335 49.291 225.907 48.8574C225.485 48.418 225.157 47.8818 224.923 47.249C224.694 46.6162 224.58 45.8896 224.58 45.0693C224.58 43.9795 224.773 43.0566 225.16 42.3008C225.547 41.5449 226.098 40.9707 226.812 40.5781C227.527 40.1855 228.38 39.9893 229.37 39.9893C230.29 39.9893 231.104 40.1855 231.813 40.5781C232.528 40.9707 233.088 41.5449 233.492 42.3008C233.902 43.0566 234.107 43.9795 234.107 45.0693ZM227.313 45.0693C227.313 45.7139 227.384 46.2559 227.524 46.6953C227.665 47.1348 227.885 47.4658 228.184 47.6885C228.482 47.9111 228.872 48.0225 229.353 48.0225C229.827 48.0225 230.211 47.9111 230.504 47.6885C230.803 47.4658 231.02 47.1348 231.154 46.6953C231.295 46.2559 231.365 45.7139 231.365 45.0693C231.365 44.4189 231.295 43.8799 231.154 43.4521C231.02 43.0186 230.803 42.6934 230.504 42.4766C230.205 42.2598 229.815 42.1514 229.335 42.1514C228.626 42.1514 228.11 42.3945 227.788 42.8809C227.472 43.3672 227.313 44.0967 227.313 45.0693ZM247.862 39.9893C248.976 39.9893 249.816 40.2764 250.385 40.8506C250.959 41.4189 251.246 42.333 251.246 43.5928V50H248.557V44.2607C248.557 43.5576 248.437 43.0273 248.196 42.6699C247.956 42.3125 247.584 42.1338 247.08 42.1338C246.371 42.1338 245.867 42.3887 245.568 42.8984C245.27 43.4023 245.12 44.126 245.12 45.0693V50H242.439V44.2607C242.439 43.792 242.387 43.3994 242.281 43.083C242.176 42.7666 242.015 42.5293 241.798 42.3711C241.581 42.2129 241.303 42.1338 240.963 42.1338C240.465 42.1338 240.072 42.2598 239.785 42.5117C239.504 42.7578 239.302 43.124 239.179 43.6104C239.062 44.0908 239.003 44.6797 239.003 45.377V50H236.322V40.1738H238.37L238.73 41.4307H238.88C239.079 41.0908 239.328 40.8154 239.627 40.6045C239.932 40.3936 240.266 40.2383 240.629 40.1387C240.992 40.0391 241.361 39.9893 241.736 39.9893C242.457 39.9893 243.066 40.1064 243.564 40.3408C244.068 40.5752 244.455 40.9385 244.725 41.4307H244.962C245.255 40.9268 245.668 40.5605 246.201 40.332C246.74 40.1035 247.294 39.9893 247.862 39.9893ZM258.031 39.9717C259.35 39.9717 260.36 40.2588 261.063 40.833C261.767 41.4072 262.118 42.2803 262.118 43.4521V50H260.246L259.728 48.6641H259.657C259.376 49.0156 259.089 49.3027 258.796 49.5254C258.503 49.748 258.166 49.9121 257.785 50.0176C257.404 50.123 256.941 50.1758 256.396 50.1758C255.816 50.1758 255.295 50.0645 254.832 49.8418C254.375 49.6191 254.015 49.2793 253.751 48.8223C253.487 48.3594 253.355 47.7734 253.355 47.0645C253.355 46.0215 253.722 45.2539 254.454 44.7617C255.187 44.2637 256.285 43.9883 257.75 43.9355L259.455 43.8828V43.4521C259.455 42.9365 259.32 42.5586 259.051 42.3184C258.781 42.0781 258.406 41.958 257.926 41.958C257.451 41.958 256.985 42.0254 256.528 42.1602C256.071 42.2949 255.614 42.4648 255.157 42.6699L254.27 40.8594C254.791 40.584 255.374 40.3672 256.019 40.209C256.669 40.0508 257.34 39.9717 258.031 39.9717ZM259.455 45.4473L258.418 45.4824C257.551 45.5059 256.947 45.6611 256.607 45.9482C256.273 46.2354 256.106 46.6133 256.106 47.082C256.106 47.4922 256.227 47.7852 256.467 47.9609C256.707 48.1309 257.021 48.2158 257.407 48.2158C257.981 48.2158 258.465 48.0459 258.857 47.7061C259.256 47.3662 259.455 46.8828 259.455 46.2559V45.4473ZM267.567 40.1738V50H264.887V40.1738H267.567ZM266.231 36.3242C266.63 36.3242 266.973 36.418 267.26 36.6055C267.547 36.7871 267.69 37.1299 267.69 37.6338C267.69 38.1318 267.547 38.4775 267.26 38.6709C266.973 38.8584 266.63 38.9521 266.231 38.9521C265.827 38.9521 265.481 38.8584 265.194 38.6709C264.913 38.4775 264.772 38.1318 264.772 37.6338C264.772 37.1299 264.913 36.7871 265.194 36.6055C265.481 36.418 265.827 36.3242 266.231 36.3242ZM275.97 39.9893C277.019 39.9893 277.862 40.2764 278.501 40.8506C279.14 41.4189 279.459 42.333 279.459 43.5928V50H276.778V44.2607C276.778 43.5576 276.649 43.0273 276.392 42.6699C276.14 42.3125 275.741 42.1338 275.196 42.1338C274.376 42.1338 273.816 42.4121 273.518 42.9688C273.219 43.5254 273.069 44.3281 273.069 45.377V50H270.389V40.1738H272.437L272.797 41.4307H272.946C273.157 41.0908 273.418 40.8154 273.729 40.6045C274.045 40.3936 274.394 40.2383 274.774 40.1387C275.161 40.0391 275.56 39.9893 275.97 39.9893ZM287.8 39.9893C288.849 39.9893 289.692 40.2764 290.331 40.8506C290.97 41.4189 291.289 42.333 291.289 43.5928V50H288.608V44.2607C288.608 43.5576 288.479 43.0273 288.222 42.6699C287.97 42.3125 287.571 42.1338 287.026 42.1338C286.206 42.1338 285.646 42.4121 285.348 42.9688C285.049 43.5254 284.899 44.3281 284.899 45.377V50H282.219V40.1738H284.267L284.627 41.4307H284.776C284.987 41.0908 285.248 40.8154 285.559 40.6045C285.875 40.3936 286.224 40.2383 286.604 40.1387C286.991 40.0391 287.39 39.9893 287.8 39.9893ZM298.074 39.9717C299.393 39.9717 300.403 40.2588 301.106 40.833C301.81 41.4072 302.161 42.2803 302.161 43.4521V50H300.289L299.771 48.6641H299.7C299.419 49.0156 299.132 49.3027 298.839 49.5254C298.546 49.748 298.209 49.9121 297.828 50.0176C297.447 50.123 296.984 50.1758 296.439 50.1758C295.859 50.1758 295.338 50.0645 294.875 49.8418C294.418 49.6191 294.058 49.2793 293.794 48.8223C293.53 48.3594 293.398 47.7734 293.398 47.0645C293.398 46.0215 293.765 45.2539 294.497 44.7617C295.229 44.2637 296.328 43.9883 297.793 43.9355L299.498 43.8828V43.4521C299.498 42.9365 299.363 42.5586 299.094 42.3184C298.824 42.0781 298.449 41.958 297.969 41.958C297.494 41.958 297.028 42.0254 296.571 42.1602C296.114 42.2949 295.657 42.4648 295.2 42.6699L294.312 40.8594C294.834 40.584 295.417 40.3672 296.062 40.209C296.712 40.0508 297.383 39.9717 298.074 39.9717ZM299.498 45.4473L298.461 45.4824C297.594 45.5059 296.99 45.6611 296.65 45.9482C296.316 46.2354 296.149 46.6133 296.149 47.082C296.149 47.4922 296.27 47.7852 296.51 47.9609C296.75 48.1309 297.063 48.2158 297.45 48.2158C298.024 48.2158 298.508 48.0459 298.9 47.7061C299.299 47.3662 299.498 46.8828 299.498 46.2559V45.4473ZM316.47 39.9893C317.583 39.9893 318.424 40.2764 318.992 40.8506C319.566 41.4189 319.854 42.333 319.854 43.5928V50H317.164V44.2607C317.164 43.5576 317.044 43.0273 316.804 42.6699C316.563 42.3125 316.191 42.1338 315.688 42.1338C314.979 42.1338 314.475 42.3887 314.176 42.8984C313.877 43.4023 313.728 44.126 313.728 45.0693V50H311.047V44.2607C311.047 43.792 310.994 43.3994 310.889 43.083C310.783 42.7666 310.622 42.5293 310.405 42.3711C310.188 42.2129 309.91 42.1338 309.57 42.1338C309.072 42.1338 308.68 42.2598 308.393 42.5117C308.111 42.7578 307.909 43.124 307.786 43.6104C307.669 44.0908 307.61 44.6797 307.61 45.377V50H304.93V40.1738H306.978L307.338 41.4307H307.487C307.687 41.0908 307.936 40.8154 308.234 40.6045C308.539 40.3936 308.873 40.2383 309.236 40.1387C309.6 40.0391 309.969 39.9893 310.344 39.9893C311.064 39.9893 311.674 40.1064 312.172 40.3408C312.676 40.5752 313.062 40.9385 313.332 41.4307H313.569C313.862 40.9268 314.275 40.5605 314.809 40.332C315.348 40.1035 315.901 39.9893 316.47 39.9893ZM326.665 39.9893C327.573 39.9893 328.355 40.165 329.012 40.5166C329.668 40.8623 330.175 41.3662 330.532 42.0283C330.89 42.6904 331.068 43.499 331.068 44.4541V45.7549H324.731C324.761 46.5107 324.986 47.1055 325.408 47.5391C325.836 47.9668 326.428 48.1807 327.184 48.1807C327.811 48.1807 328.385 48.1162 328.906 47.9873C329.428 47.8584 329.964 47.665 330.515 47.4072V49.4814C330.028 49.7217 329.519 49.8975 328.985 50.0088C328.458 50.1201 327.816 50.1758 327.061 50.1758C326.076 50.1758 325.203 49.9941 324.441 49.6309C323.686 49.2676 323.091 48.7139 322.657 47.9697C322.229 47.2256 322.016 46.2881 322.016 45.1572C322.016 44.0088 322.209 43.0537 322.596 42.292C322.988 41.5244 323.533 40.9502 324.23 40.5693C324.928 40.1826 325.739 39.9893 326.665 39.9893ZM326.683 41.8965C326.161 41.8965 325.728 42.0635 325.382 42.3975C325.042 42.7314 324.846 43.2559 324.793 43.9707H328.555C328.549 43.5723 328.476 43.2178 328.335 42.9072C328.2 42.5967 327.995 42.3506 327.72 42.1689C327.45 41.9873 327.104 41.8965 326.683 41.8965ZM332.87 48.7432C332.87 48.1924 333.02 47.8057 333.318 47.583C333.623 47.3604 333.989 47.249 334.417 47.249C334.833 47.249 335.19 47.3604 335.489 47.583C335.794 47.8057 335.946 48.1924 335.946 48.7432C335.946 49.2705 335.794 49.6514 335.489 49.8857C335.19 50.1201 334.833 50.2373 334.417 50.2373C333.989 50.2373 333.623 50.1201 333.318 49.8857C333.02 49.6514 332.87 49.2705 332.87 48.7432ZM342.371 50.1758C341.398 50.1758 340.569 50 339.884 49.6484C339.198 49.291 338.677 48.7402 338.319 47.9961C337.962 47.252 337.783 46.2998 337.783 45.1396C337.783 43.9385 337.985 42.96 338.39 42.2041C338.8 41.4424 339.365 40.8828 340.086 40.5254C340.812 40.168 341.653 39.9893 342.608 39.9893C343.288 39.9893 343.874 40.0566 344.366 40.1914C344.864 40.3203 345.298 40.4756 345.667 40.6572L344.876 42.7314C344.454 42.5615 344.062 42.4238 343.698 42.3184C343.335 42.207 342.972 42.1514 342.608 42.1514C342.14 42.1514 341.75 42.2627 341.439 42.4854C341.129 42.7021 340.897 43.0303 340.745 43.4697C340.593 43.9092 340.517 44.46 340.517 45.1221C340.517 45.7725 340.599 46.3115 340.763 46.7393C340.927 47.167 341.164 47.4863 341.475 47.6973C341.785 47.9023 342.163 48.0049 342.608 48.0049C343.165 48.0049 343.66 47.9316 344.094 47.7852C344.527 47.6328 344.949 47.4219 345.359 47.1523V49.4463C344.949 49.7041 344.519 49.8887 344.067 50C343.622 50.1172 343.057 50.1758 342.371 50.1758ZM356.574 45.0693C356.574 45.8896 356.463 46.6162 356.24 47.249C356.023 47.8818 355.704 48.418 355.282 48.8574C354.866 49.291 354.362 49.6191 353.771 49.8418C353.185 50.0645 352.522 50.1758 351.784 50.1758C351.093 50.1758 350.457 50.0645 349.877 49.8418C349.303 49.6191 348.802 49.291 348.374 48.8574C347.952 48.418 347.624 47.8818 347.39 47.249C347.161 46.6162 347.047 45.8896 347.047 45.0693C347.047 43.9795 347.24 43.0566 347.627 42.3008C348.014 41.5449 348.564 40.9707 349.279 40.5781C349.994 40.1855 350.847 39.9893 351.837 39.9893C352.757 39.9893 353.571 40.1855 354.28 40.5781C354.995 40.9707 355.555 41.5449 355.959 42.3008C356.369 43.0566 356.574 43.9795 356.574 45.0693ZM349.78 45.0693C349.78 45.7139 349.851 46.2559 349.991 46.6953C350.132 47.1348 350.352 47.4658 350.65 47.6885C350.949 47.9111 351.339 48.0225 351.819 48.0225C352.294 48.0225 352.678 47.9111 352.971 47.6885C353.27 47.4658 353.486 47.1348 353.621 46.6953C353.762 46.2559 353.832 45.7139 353.832 45.0693C353.832 44.4189 353.762 43.8799 353.621 43.4521C353.486 43.0186 353.27 42.6934 352.971 42.4766C352.672 42.2598 352.282 42.1514 351.802 42.1514C351.093 42.1514 350.577 42.3945 350.255 42.8809C349.938 43.3672 349.78 44.0967 349.78 45.0693ZM370.329 39.9893C371.442 39.9893 372.283 40.2764 372.852 40.8506C373.426 41.4189 373.713 42.333 373.713 43.5928V50H371.023V44.2607C371.023 43.5576 370.903 43.0273 370.663 42.6699C370.423 42.3125 370.051 42.1338 369.547 42.1338C368.838 42.1338 368.334 42.3887 368.035 42.8984C367.736 43.4023 367.587 44.126 367.587 45.0693V50H364.906V44.2607C364.906 43.792 364.854 43.3994 364.748 43.083C364.643 42.7666 364.481 42.5293 364.265 42.3711C364.048 42.2129 363.77 42.1338 363.43 42.1338C362.932 42.1338 362.539 42.2598 362.252 42.5117C361.971 42.7578 361.769 43.124 361.646 43.6104C361.528 44.0908 361.47 44.6797 361.47 45.377V50H358.789V40.1738H360.837L361.197 41.4307H361.347C361.546 41.0908 361.795 40.8154 362.094 40.6045C362.398 40.3936 362.732 40.2383 363.096 40.1387C363.459 40.0391 363.828 39.9893 364.203 39.9893C364.924 39.9893 365.533 40.1064 366.031 40.3408C366.535 40.5752 366.922 40.9385 367.191 41.4307H367.429C367.722 40.9268 368.135 40.5605 368.668 40.332C369.207 40.1035 369.761 39.9893 370.329 39.9893Z" fill="black"/>
</g>
<defs>
<clipPath id="clip0_1414_175">
<rect width="643" height="447.57" fill="white"/>
</clipPath>
</defs>
</svg>
